<?xml version="1.0" standalone="no"?>
<!DOCTYPE svg PUBLIC "-//W3C//DTD SVG 20010904//EN"
 "http://www.w3.org/TR/2001/REC-SVG-20010904/DTD/svg10.dtd">
<svg version="1.0" xmlns="http://www.w3.org/2000/svg"
 width="700.000000pt" height="700.000000pt" viewBox="0 0 700.000000 700.000000"
 preserveAspectRatio="xMidYMid meet">
<metadata>
Created by potrace 1.14, written by Peter Selinger 2001-2017
</metadata>
<g transform="translate(0.000000,700.000000) scale(0.100000,-0.100000)"
fill="#000000" stroke="none">
<path d="M2720 5339 l0 -1182 78 74 c42 41 105 98 140 128 l62 54 0 1053 0
1054 -140 0 -140 0 0 -1181z"/>
<path d="M4550 5916 l0 -605 98 34 c470 163 988 256 1510 272 135 4 222 10
222 16 0 19 -90 175 -146 253 -218 305 -553 525 -907 598 -133 28 -250 36
-514 36 l-263 0 0 -604z"/>
<path d="M1085 6219 c-113 -83 -263 -242 -348 -370 -118 -177 -187 -343 -229
-551 l-23 -113 0 -1680 c0 -1599 1 -1685 19 -1780 51 -272 176 -529 365 -744
57 -66 214 -201 270 -234 l31 -18 0 2770 c0 1524 -3 2771 -7 2771 -5 0 -39
-23 -78 -51z"/>
<path d="M6075 4063 c-486 -32 -1026 -184 -1440 -406 l-80 -43 -3 -162 c-1
-89 0 -162 3 -162 4 0 45 23 92 50 318 188 692 327 1063 394 220 40 342 50
582 51 l228 0 0 136 c0 133 -1 137 -22 143 -23 6 -329 5 -423 -1z"/>
<path d="M6075 2224 c-390 -53 -737 -227 -1018 -511 -303 -307 -475 -694 -503
-1131 l-7 -105 309 6 c345 6 426 16 609 74 226 72 414 185 589 352 179 173
305 374 385 618 53 160 70 272 78 504 l6 196 -63 6 c-97 11 -274 6 -385 -9z"/>
<path d="M2946 1734 c-90 -244 -154 -495 -190 -744 -17 -118 -36 -353 -36
-447 l0 -63 140 0 140 0 0 690 c0 380 -2 690 -4 690 -2 0 -25 -57 -50 -126z"/>
</g>
</svg>
